<svg xmlns="http://www.w3.org/2000/svg" width="1600" height="960" viewBox="0 0 1600 960">

<defs>
  <style>
    :root {
      --display-font: "Noto Sans SC", "Microsoft YaHei", "SimHei", "Segoe Print", "Comic Sans MS", cursive;
      --mono-font: "Cascadia Mono", "Noto Sans SC", "Microsoft YaHei", Consolas, monospace;
    }
    text { paint-order: stroke; stroke: rgba(255, 250, 240, 0.55); stroke-width: 1.2px; }
  </style>
  <filter id="paperNoise" x="0" y="0" width="100%" height="100%">
    <feTurbulence type="fractalNoise" baseFrequency="0.82" numOctaves="3" seed="19" result="noise"/>
    <feColorMatrix type="saturate" values="0"/>
    <feComponentTransfer>
      <feFuncA type="table" tableValues="0 0.08"/>
    </feComponentTransfer>
    <feBlend mode="multiply" in2="SourceGraphic"/>
  </filter>
  <filter id="softShadow" x="-20%" y="-20%" width="140%" height="140%">
    <feDropShadow dx="5" dy="7" stdDeviation="0.9" flood-color="#3d3428" flood-opacity="0.18"/>
  </filter>
</defs>

<rect width="1600" height="960" fill="#f5ecd8"/>
<line x1="0" y1="0" x2="0" y2="960" stroke="#d7cbb2" stroke-width="1" opacity="0.42"/>
<line x1="32" y1="0" x2="32" y2="960" stroke="#d7cbb2" stroke-width="1" opacity="0.42"/>
<line x1="64" y1="0" x2="64" y2="960" stroke="#d7cbb2" stroke-width="1" opacity="0.42"/>
<line x1="96" y1="0" x2="96" y2="960" stroke="#d7cbb2" stroke-width="1" opacity="0.42"/>
<line x1="128" y1="0" x2="128" y2="960" stroke="#d7cbb2" stroke-width="1" opacity="0.42"/>
<line x1="160" y1="0" x2="160" y2="960" stroke="#d7cbb2" stroke-width="1" opacity="0.42"/>
<line x1="192" y1="0" x2="192" y2="960" stroke="#d7cbb2" stroke-width="1" opacity="0.42"/>
<line x1="224" y1="0" x2="224" y2="960" stroke="#d7cbb2" stroke-width="1" opacity="0.42"/>
<line x1="256" y1="0" x2="256" y2="960" stroke="#d7cbb2" stroke-width="1" opacity="0.42"/>
<line x1="288" y1="0" x2="288" y2="960" stroke="#d7cbb2" stroke-width="1" opacity="0.42"/>
<line x1="320" y1="0" x2="320" y2="960" stroke="#d7cbb2" stroke-width="1" opacity="0.42"/>
<line x1="352" y1="0" x2="352" y2="960" stroke="#d7cbb2" stroke-width="1" opacity="0.42"/>
<line x1="384" y1="0" x2="384" y2="960" stroke="#d7cbb2" stroke-width="1" opacity="0.42"/>
<line x1="416" y1="0" x2="416" y2="960" stroke="#d7cbb2" stroke-width="1" opacity="0.42"/>
<line x1="448" y1="0" x2="448" y2="960" stroke="#d7cbb2" stroke-width="1" opacity="0.42"/>
<line x1="480" y1="0" x2="480" y2="960" stroke="#d7cbb2" stroke-width="1" opacity="0.42"/>
<line x1="512" y1="0" x2="512" y2="960" stroke="#d7cbb2" stroke-width="1" opacity="0.42"/>
<line x1="544" y1="0" x2="544" y2="960" stroke="#d7cbb2" stroke-width="1" opacity="0.42"/>
<line x1="576" y1="0" x2="576" y2="960" stroke="#d7cbb2" stroke-width="1" opacity="0.42"/>
<line x1="608" y1="0" x2="608" y2="960" stroke="#d7cbb2" stroke-width="1" opacity="0.42"/>
<line x1="640" y1="0" x2="640" y2="960" stroke="#d7cbb2" stroke-width="1" opacity="0.42"/>
<line x1="672" y1="0" x2="672" y2="960" stroke="#d7cbb2" stroke-width="1" opacity="0.42"/>
<line x1="704" y1="0" x2="704" y2="960" stroke="#d7cbb2" stroke-width="1" opacity="0.42"/>
<line x1="736" y1="0" x2="736" y2="960" stroke="#d7cbb2" stroke-width="1" opacity="0.42"/>
<line x1="768" y1="0" x2="768" y2="960" stroke="#d7cbb2" stroke-width="1" opacity="0.42"/>
<line x1="800" y1="0" x2="800" y2="960" stroke="#d7cbb2" stroke-width="1" opacity="0.42"/>
<line x1="832" y1="0" x2="832" y2="960" stroke="#d7cbb2" stroke-width="1" opacity="0.42"/>
<line x1="864" y1="0" x2="864" y2="960" stroke="#d7cbb2" stroke-width="1" opacity="0.42"/>
<line x1="896" y1="0" x2="896" y2="960" stroke="#d7cbb2" stroke-width="1" opacity="0.42"/>
<line x1="928" y1="0" x2="928" y2="960" stroke="#d7cbb2" stroke-width="1" opacity="0.42"/>
<line x1="960" y1="0" x2="960" y2="960" stroke="#d7cbb2" stroke-width="1" opacity="0.42"/>
<line x1="992" y1="0" x2="992" y2="960" stroke="#d7cbb2" stroke-width="1" opacity="0.42"/>
<line x1="1024" y1="0" x2="1024" y2="960" stroke="#d7cbb2" stroke-width="1" opacity="0.42"/>
<line x1="1056" y1="0" x2="1056" y2="960" stroke="#d7cbb2" stroke-width="1" opacity="0.42"/>
<line x1="1088" y1="0" x2="1088" y2="960" stroke="#d7cbb2" stroke-width="1" opacity="0.42"/>
<line x1="1120" y1="0" x2="1120" y2="960" stroke="#d7cbb2" stroke-width="1" opacity="0.42"/>
<line x1="1152" y1="0" x2="1152" y2="960" stroke="#d7cbb2" stroke-width="1" opacity="0.42"/>
<line x1="1184" y1="0" x2="1184" y2="960" stroke="#d7cbb2" stroke-width="1" opacity="0.42"/>
<line x1="1216" y1="0" x2="1216" y2="960" stroke="#d7cbb2" stroke-width="1" opacity="0.42"/>
<line x1="1248" y1="0" x2="1248" y2="960" stroke="#d7cbb2" stroke-width="1" opacity="0.42"/>
<line x1="1280" y1="0" x2="1280" y2="960" stroke="#d7cbb2" stroke-width="1" opacity="0.42"/>
<line x1="1312" y1="0" x2="1312" y2="960" stroke="#d7cbb2" stroke-width="1" opacity="0.42"/>
<line x1="1344" y1="0" x2="1344" y2="960" stroke="#d7cbb2" stroke-width="1" opacity="0.42"/>
<line x1="1376" y1="0" x2="1376" y2="960" stroke="#d7cbb2" stroke-width="1" opacity="0.42"/>
<line x1="1408" y1="0" x2="1408" y2="960" stroke="#d7cbb2" stroke-width="1" opacity="0.42"/>
<line x1="1440" y1="0" x2="1440" y2="960" stroke="#d7cbb2" stroke-width="1" opacity="0.42"/>
<line x1="1472" y1="0" x2="1472" y2="960" stroke="#d7cbb2" stroke-width="1" opacity="0.42"/>
<line x1="1504" y1="0" x2="1504" y2="960" stroke="#d7cbb2" stroke-width="1" opacity="0.42"/>
<line x1="1536" y1="0" x2="1536" y2="960" stroke="#d7cbb2" stroke-width="1" opacity="0.42"/>
<line x1="1568" y1="0" x2="1568" y2="960" stroke="#d7cbb2" stroke-width="1" opacity="0.42"/>
<line x1="1600" y1="0" x2="1600" y2="960" stroke="#d7cbb2" stroke-width="1" opacity="0.42"/>
<line x1="0" y1="0" x2="1600" y2="0" stroke="#d7cbb2" stroke-width="1" opacity="0.42"/>
<line x1="0" y1="32" x2="1600" y2="32" stroke="#d7cbb2" stroke-width="1" opacity="0.42"/>
<line x1="0" y1="64" x2="1600" y2="64" stroke="#d7cbb2" stroke-width="1" opacity="0.42"/>
<line x1="0" y1="96" x2="1600" y2="96" stroke="#d7cbb2" stroke-width="1" opacity="0.42"/>
<line x1="0" y1="128" x2="1600" y2="128" stroke="#d7cbb2" stroke-width="1" opacity="0.42"/>
<line x1="0" y1="160" x2="1600" y2="160" stroke="#d7cbb2" stroke-width="1" opacity="0.42"/>
<line x1="0" y1="192" x2="1600" y2="192" stroke="#d7cbb2" stroke-width="1" opacity="0.42"/>
<line x1="0" y1="224" x2="1600" y2="224" stroke="#d7cbb2" stroke-width="1" opacity="0.42"/>
<line x1="0" y1="256" x2="1600" y2="256" stroke="#d7cbb2" stroke-width="1" opacity="0.42"/>
<line x1="0" y1="288" x2="1600" y2="288" stroke="#d7cbb2" stroke-width="1" opacity="0.42"/>
<line x1="0" y1="320" x2="1600" y2="320" stroke="#d7cbb2" stroke-width="1" opacity="0.42"/>
<line x1="0" y1="352" x2="1600" y2="352" stroke="#d7cbb2" stroke-width="1" opacity="0.42"/>
<line x1="0" y1="384" x2="1600" y2="384" stroke="#d7cbb2" stroke-width="1" opacity="0.42"/>
<line x1="0" y1="416" x2="1600" y2="416" stroke="#d7cbb2" stroke-width="1" opacity="0.42"/>
<line x1="0" y1="448" x2="1600" y2="448" stroke="#d7cbb2" stroke-width="1" opacity="0.42"/>
<line x1="0" y1="480" x2="1600" y2="480" stroke="#d7cbb2" stroke-width="1" opacity="0.42"/>
<line x1="0" y1="512" x2="1600" y2="512" stroke="#d7cbb2" stroke-width="1" opacity="0.42"/>
<line x1="0" y1="544" x2="1600" y2="544" stroke="#d7cbb2" stroke-width="1" opacity="0.42"/>
<line x1="0" y1="576" x2="1600" y2="576" stroke="#d7cbb2" stroke-width="1" opacity="0.42"/>
<line x1="0" y1="608" x2="1600" y2="608" stroke="#d7cbb2" stroke-width="1" opacity="0.42"/>
<line x1="0" y1="640" x2="1600" y2="640" stroke="#d7cbb2" stroke-width="1" opacity="0.42"/>
<line x1="0" y1="672" x2="1600" y2="672" stroke="#d7cbb2" stroke-width="1" opacity="0.42"/>
<line x1="0" y1="704" x2="1600" y2="704" stroke="#d7cbb2" stroke-width="1" opacity="0.42"/>
<line x1="0" y1="736" x2="1600" y2="736" stroke="#d7cbb2" stroke-width="1" opacity="0.42"/>
<line x1="0" y1="768" x2="1600" y2="768" stroke="#d7cbb2" stroke-width="1" opacity="0.42"/>
<line x1="0" y1="800" x2="1600" y2="800" stroke="#d7cbb2" stroke-width="1" opacity="0.42"/>
<line x1="0" y1="832" x2="1600" y2="832" stroke="#d7cbb2" stroke-width="1" opacity="0.42"/>
<line x1="0" y1="864" x2="1600" y2="864" stroke="#d7cbb2" stroke-width="1" opacity="0.42"/>
<line x1="0" y1="896" x2="1600" y2="896" stroke="#d7cbb2" stroke-width="1" opacity="0.42"/>
<line x1="0" y1="928" x2="1600" y2="928" stroke="#d7cbb2" stroke-width="1" opacity="0.42"/>
<line x1="0" y1="960" x2="1600" y2="960" stroke="#d7cbb2" stroke-width="1" opacity="0.42"/>
<line x1="0" y1="12" x2="1600" y2="12" stroke="#e3b66f" stroke-width="1.2" opacity="0.18"/>
<line x1="0" y1="76" x2="1600" y2="76" stroke="#e3b66f" stroke-width="1.2" opacity="0.18"/>
<line x1="0" y1="140" x2="1600" y2="140" stroke="#e3b66f" stroke-width="1.2" opacity="0.18"/>
<line x1="0" y1="204" x2="1600" y2="204" stroke="#e3b66f" stroke-width="1.2" opacity="0.18"/>
<line x1="0" y1="268" x2="1600" y2="268" stroke="#e3b66f" stroke-width="1.2" opacity="0.18"/>
<line x1="0" y1="332" x2="1600" y2="332" stroke="#e3b66f" stroke-width="1.2" opacity="0.18"/>
<line x1="0" y1="396" x2="1600" y2="396" stroke="#e3b66f" stroke-width="1.2" opacity="0.18"/>
<line x1="0" y1="460" x2="1600" y2="460" stroke="#e3b66f" stroke-width="1.2" opacity="0.18"/>
<line x1="0" y1="524" x2="1600" y2="524" stroke="#e3b66f" stroke-width="1.2" opacity="0.18"/>
<line x1="0" y1="588" x2="1600" y2="588" stroke="#e3b66f" stroke-width="1.2" opacity="0.18"/>
<line x1="0" y1="652" x2="1600" y2="652" stroke="#e3b66f" stroke-width="1.2" opacity="0.18"/>
<line x1="0" y1="716" x2="1600" y2="716" stroke="#e3b66f" stroke-width="1.2" opacity="0.18"/>
<line x1="0" y1="780" x2="1600" y2="780" stroke="#e3b66f" stroke-width="1.2" opacity="0.18"/>
<line x1="0" y1="844" x2="1600" y2="844" stroke="#e3b66f" stroke-width="1.2" opacity="0.18"/>
<line x1="0" y1="908" x2="1600" y2="908" stroke="#e3b66f" stroke-width="1.2" opacity="0.18"/>
<g filter="url(#paperNoise)">
<text x="76" y="74" fill="#6b5d4b" font-family="var(--mono-font)" font-size="18" font-weight="500" text-anchor="start" letter-spacing="0">BOSSAUTO RECRUITING / LANDING HERO SKETCH</text>
<text x="76" y="126" fill="#27231f" font-family="var(--display-font)" font-size="58" font-weight="800" text-anchor="start" letter-spacing="0">Bossauto Recruiting</text>
<text x="80" y="174" fill="#53483c" font-family="var(--display-font)" font-size="30" font-weight="650" text-anchor="start" letter-spacing="0">可审计的 BOSS 招聘自动化工作流</text>
<text x="82" y="214" fill="#585045" font-family="var(--mono-font)" font-size="18" font-weight="500" text-anchor="start" letter-spacing="0">scan candidates  ·  capture evidence  ·  dry-run decisions  ·  approved actions only</text>
<path class="marker-f0cb65" d="M 86.4 242.6 L 269.3 243.2 L 274.7 248.5 L 275.2 280.8 L 269.8 284.6 L 85.2 286.0 L 80.6 281.1 L 82.4 248.1 Z" fill="#f0cb65" stroke="#f0cb65" stroke-width="1.0" stroke-linejoin="round"/>
<text x="104" y="271" fill="#585045" font-family="var(--mono-font)" font-size="18" font-weight="500" text-anchor="start" letter-spacing="0">read-only first</text>
<path class="marker-9cc7b0" d="M 303.2 244.3 L 506.9 242.5 L 510.9 248.6 L 509.5 281.0 L 507.4 285.5 L 302.8 284.8 L 301.0 282.3 L 300.9 248.7 Z" fill="#9cc7b0" stroke="#9cc7b0" stroke-width="1.0" stroke-linejoin="round"/>
<text x="321" y="271" fill="#585045" font-family="var(--mono-font)" font-size="18" font-weight="500" text-anchor="start" letter-spacing="0">action log required</text>
<path class="marker-f0a786" d="M 540.1 245.4 L 711.6 244.2 L 717.0 248.4 L 717.1 282.2 L 712.6 284.6 L 539.2 285.4 L 534.7 281.2 L 534.8 247.3 Z" fill="#f0a786" stroke="#f0a786" stroke-width="1.0" stroke-linejoin="round"/>
<text x="558" y="271" fill="#585045" font-family="var(--mono-font)" font-size="18" font-weight="500" text-anchor="start" letter-spacing="0">human review</text>
<g filter="url(#softShadow)">
<path d="M 98.4 317.6 L 1241.6 317.1 L 1255.3 333.3 L 1256.4 844.3 L 1241.0 858.7 L 97.0 857.6 L 85.5 844.4 L 84.2 332.6 Z" fill="#fffaf0" stroke="#302b25" stroke-width="2.5" stroke-linejoin="round"/>
</g>
<path d="M 87.2 374.6 Q 674.5 378.8 1249.4 375.3" fill="none" stroke="#37322b" stroke-width="2.0" stroke-linecap="round" stroke-linejoin="round"/>
<path d="M 116.1 285.3 L 284.1 283.4 L 292.5 292.7 L 293.2 316.9 L 282.3 325.2 L 117.2 325.3 L 108.3 318.2 L 107.7 292.2 Z" fill="#f7e7b2" stroke="#37322b" stroke-width="1.8" stroke-linejoin="round"/>
<text x="128" y="311" fill="#33302b" font-family="var(--mono-font)" font-size="18" font-weight="500" text-anchor="start" letter-spacing="0">recommend</text>
<path d="M 314.5 284.0 L 437.8 282.6 L 446.8 293.4 L 448.9 316.8 L 437.7 325.6 L 314.5 326.1 L 305.4 318.1 L 302.5 293.7 Z" fill="#f8f1e3" stroke="#37322b" stroke-width="1.8" stroke-linejoin="round"/>
<text x="324" y="311" fill="#72685d" font-family="var(--mono-font)" font-size="18" font-weight="500" text-anchor="start" letter-spacing="0">search</text>
<path d="M 467.5 284.1 L 616.3 284.4 L 624.8 292.8 L 625.9 318.4 L 618.1 325.3 L 467.0 325.0 L 459.2 318.1 L 457.4 293.4 Z" fill="#f8f1e3" stroke="#37322b" stroke-width="1.8" stroke-linejoin="round"/>
<text x="478" y="311" fill="#72685d" font-family="var(--mono-font)" font-size="18" font-weight="500" text-anchor="start" letter-spacing="0">favorites</text>
<path d="M 649.3 283.0 L 801.8 284.1 L 810.8 293.1 L 808.5 316.5 L 799.6 327.3 L 650.1 327.0 L 639.4 315.7 L 641.1 294.3 Z" fill="#f8f1e3" stroke="#37322b" stroke-width="1.8" stroke-linejoin="round"/>
<text x="660" y="311" fill="#72685d" font-family="var(--mono-font)" font-size="18" font-weight="500" text-anchor="start" letter-spacing="0">action log</text>
<text x="110" y="355" fill="#585045" font-family="var(--mono-font)" font-size="18" font-weight="500" text-anchor="start" letter-spacing="0">https://www.zhipin.com/web/chat/recommend</text>
<path d="M 114.8 404.0 L 346.7 404.8 L 356.8 410.9 L 355.9 814.1 L 347.3 823.1 L 115.8 821.1 L 108.1 814.7 L 107.1 411.4 Z" fill="#f6edd9" stroke="#37322b" stroke-width="1.8" stroke-linejoin="round"/>
<text x="132" y="436" fill="#585045" font-family="var(--mono-font)" font-size="18" font-weight="500" text-anchor="start" letter-spacing="0">VISIBLE CANDIDATES</text>
<path d="M 137.5 462.4 L 323.8 462.1 L 330.9 469.2 L 331.5 520.3 L 323.2 527.2 L 134.7 528.4 L 127.2 521.2 L 129.1 468.7 Z" fill="#f7e7b2" stroke="#37322b" stroke-width="1.5" stroke-linejoin="round"/>
<text x="146" y="486" fill="#40382f" font-family="var(--mono-font)" font-size="18" font-weight="500" text-anchor="start" letter-spacing="0">id:geek-1392</text>
<text x="146" y="510" fill="#6e5d4c" font-family="var(--mono-font)" font-size="18" font-weight="500" text-anchor="start" letter-spacing="0">AI Product Ops / review</text>
<path d="M 135.2 548.5 L 323.1 546.9 L 333.3 556.2 L 331.9 606.9 L 324.9 613.1 L 134.8 613.8 L 127.8 605.9 L 128.7 556.5 Z" fill="#d9eadf" stroke="#37322b" stroke-width="1.5" stroke-linejoin="round"/>
<text x="146" y="572" fill="#40382f" font-family="var(--mono-font)" font-size="18" font-weight="500" text-anchor="start" letter-spacing="0">id:geek-2077</text>
<text x="146" y="596" fill="#6e5d4c" font-family="var(--mono-font)" font-size="18" font-weight="500" text-anchor="start" letter-spacing="0">HR SaaS PM / pass</text>
<path d="M 137.5 632.8 L 323.7 633.5 L 333.1 641.2 L 331.1 691.8 L 323.8 699.3 L 135.2 701.3 L 127.8 693.1 L 128.2 640.7 Z" fill="#ead7cf" stroke="#37322b" stroke-width="1.5" stroke-linejoin="round"/>
<text x="146" y="658" fill="#40382f" font-family="var(--mono-font)" font-size="18" font-weight="500" text-anchor="start" letter-spacing="0">id:geek-2218</text>
<text x="146" y="682" fill="#6e5d4c" font-family="var(--mono-font)" font-size="18" font-weight="500" text-anchor="start" letter-spacing="0">Already contacted / skip</text>
<path d="M 137.5 721.0 L 325.4 721.3 L 333.0 727.0 L 332.0 777.1 L 323.7 784.7 L 135.6 787.5 L 127.3 778.9 L 127.9 727.8 Z" fill="#f7e7b2" stroke="#37322b" stroke-width="1.5" stroke-linejoin="round"/>
<text x="146" y="744" fill="#40382f" font-family="var(--mono-font)" font-size="18" font-weight="500" text-anchor="start" letter-spacing="0">id:geek-3024</text>
<text x="146" y="768" fill="#6e5d4c" font-family="var(--mono-font)" font-size="18" font-weight="500" text-anchor="start" letter-spacing="0">Need detail / review</text>
<path d="M 395.4 405.5 L 898.2 404.7 L 905.0 411.4 L 907.4 814.2 L 898.1 822.7 L 392.7 822.3 L 386.0 815.1 L 385.0 413.4 Z" fill="#fffdf7" stroke="#37322b" stroke-width="1.8" stroke-linejoin="round"/>
<text x="410" y="440" fill="#302b25" font-family="var(--display-font)" font-size="28" font-weight="700" text-anchor="start" letter-spacing="0">候选人证据面板</text>
<text x="414" y="472" fill="#585045" font-family="var(--mono-font)" font-size="18" font-weight="500" text-anchor="start" letter-spacing="0">stableId + card text + detail screenshot</text>
<path d="M 420.7 499.1 L 592.3 500.5 L 599.2 506.9 L 601.2 569.2 L 592.3 578.4 L 421.8 578.3 L 414.1 571.3 L 413.1 508.6 Z" fill="#f8f1e3" stroke="#37322b" stroke-width="1.5" stroke-linejoin="round"/>
<text x="432" y="544" fill="#246e5a" font-family="var(--display-font)" font-size="44" font-weight="800" text-anchor="start" letter-spacing="0">39</text>
<text x="484" y="546" fill="#585045" font-family="var(--mono-font)" font-size="18" font-weight="500" text-anchor="start" letter-spacing="0">fresh cards</text>
<path d="M 631.2 499.7 L 854.5 499.4 L 861.4 508.8 L 860.7 569.9 L 855.5 579.5 L 630.7 577.1 L 623.3 571.3 L 625.1 509.1 Z" fill="#f8f1e3" stroke="#37322b" stroke-width="1.5" stroke-linejoin="round"/>
<text x="644" y="544" fill="#d55535" font-family="var(--display-font)" font-size="44" font-weight="800" text-anchor="start" letter-spacing="0">1</text>
<text x="690" y="546" fill="#585045" font-family="var(--mono-font)" font-size="18" font-weight="500" text-anchor="start" letter-spacing="0">needs approval</text>
<path d="M 422.6 603.1 L 867.5 605.1 L 879.4 613.3 L 878.4 783.7 L 869.4 794.1 L 425.3 792.8 L 415.4 783.0 L 415.4 613.3 Z" fill="#fffaf0" stroke="#37322b" stroke-width="2.0" stroke-linejoin="round"/>
<text x="436" y="636" fill="#585045" font-family="var(--mono-font)" font-size="18" font-weight="500" text-anchor="start" letter-spacing="0">SCREENING FUNNEL</text>
<path d="M 438.7 765.4 Q 639.7 765.3 854.3 766.0" fill="none" stroke="#6f6659" stroke-width="1.3" stroke-linecap="round" stroke-linejoin="round"/>
<path d="M 437.3 650.6 Q 436.2 708.8 436.5 767.3" fill="none" stroke="#6f6659" stroke-width="1.3" stroke-linecap="round" stroke-linejoin="round"/>
<path d="M 432.0 760.0 L 502.0 752.0 L 578.0 736.0 L 660.0 718.0 L 740.0 700.0 L 824.0 678.0" fill="none" stroke="#e45d37" stroke-width="4" stroke-linecap="round" stroke-linejoin="round"/>
<circle cx="432" cy="760" r="4.2" fill="#e45d37"/>
<circle cx="502" cy="752" r="4.2" fill="#e45d37"/>
<circle cx="578" cy="736" r="4.2" fill="#e45d37"/>
<circle cx="660" cy="718" r="4.2" fill="#e45d37"/>
<circle cx="740" cy="700" r="4.2" fill="#e45d37"/>
<circle cx="824" cy="678" r="4.2" fill="#e45d37"/>
<path d="M 729.6 687.0 L 745.0 688.6 L 746.3 691.5 L 746.5 762.5 L 745.0 765.4 L 730.5 767.3 L 726.9 762.8 L 726.8 690.2 Z" fill="#d8d2c2" stroke="#37322b" stroke-width="1.4" stroke-linejoin="round"/>
<path d="M 757.3 638.3 L 772.7 637.1 L 774.4 639.3 L 774.0 765.2 L 773.0 764.8 L 757.8 765.3 L 754.5 764.8 L 756.4 639.3 Z" fill="#d8d2c2" stroke="#37322b" stroke-width="1.4" stroke-linejoin="round"/>
<path d="M 786.7 664.2 L 799.8 662.5 L 800.7 667.1 L 803.2 764.1 L 801.0 766.2 L 784.9 764.9 L 783.4 765.2 L 784.9 667.1 Z" fill="#d8d2c2" stroke="#37322b" stroke-width="1.4" stroke-linejoin="round"/>
<path d="M 815.2 609.1 L 827.2 608.8 L 830.8 613.2 L 829.7 764.4 L 827.0 767.3 L 815.1 767.4 L 812.9 765.1 L 810.6 612.7 Z" fill="#d8d2c2" stroke="#37322b" stroke-width="1.4" stroke-linejoin="round"/>
<path d="M 841.5 679.3 L 856.9 679.1 L 858.9 679.3 L 858.9 762.8 L 857.1 767.1 L 841.2 766.9 L 839.9 763.4 L 840.9 679.2 Z" fill="#d8d2c2" stroke="#37322b" stroke-width="1.4" stroke-linejoin="round"/>
<path d="M 942.1 404.7 L 1212.7 404.5 L 1219.6 410.7 L 1220.5 813.5 L 1211.4 823.0 L 942.7 821.4 L 933.4 813.7 L 933.7 411.4 Z" fill="#f7f0df" stroke="#37322b" stroke-width="1.8" stroke-linejoin="round"/>
<text x="958" y="440" fill="#302b25" font-family="var(--display-font)" font-size="27" font-weight="700" text-anchor="start" letter-spacing="0">审计日志</text>
<path class="marker-ffffff" d="M 958.9 456.8 L 1183.3 457.5 L 1187.2 461.3 L 1185.4 487.1 L 1180.5 490.4 L 959.8 491.2 L 956.5 486.9 L 955.8 460.1 Z" fill="#ffffff" stroke="#ffffff" stroke-width="1.0" stroke-linejoin="round"/>
<text x="964" y="478" fill="#8a7258" font-family="var(--mono-font)" font-size="18" font-weight="500" text-anchor="start" letter-spacing="0">09:42</text>
<text x="1018" y="478" fill="#332d27" font-family="var(--mono-font)" font-size="18" font-weight="500" text-anchor="start" letter-spacing="0">scan_candidates</text>
<text x="1152" y="478" fill="#6b5d4b" font-family="var(--mono-font)" font-size="18" font-weight="500" text-anchor="start" letter-spacing="0">done</text>
<path class="marker-ffffff" d="M 959.9 514.2 L 1182.9 512.0 L 1184.8 517.0 L 1186.4 542.5 L 1183.0 547.8 L 960.5 546.2 L 955.1 541.6 L 955.2 516.9 Z" fill="#ffffff" stroke="#ffffff" stroke-width="1.0" stroke-linejoin="round"/>
<text x="964" y="534" fill="#8a7258" font-family="var(--mono-font)" font-size="18" font-weight="500" text-anchor="start" letter-spacing="0">09:45</text>
<text x="1018" y="534" fill="#332d27" font-family="var(--mono-font)" font-size="18" font-weight="500" text-anchor="start" letter-spacing="0">extract_detail</text>
<text x="1152" y="534" fill="#6b5d4b" font-family="var(--mono-font)" font-size="18" font-weight="500" text-anchor="start" letter-spacing="0">review</text>
<path class="marker-ffffff" d="M 961.0 567.7 L 1181.7 569.4 L 1185.1 573.6 L 1186.0 598.2 L 1182.5 601.5 L 960.8 603.8 L 954.8 598.8 L 955.0 574.4 Z" fill="#ffffff" stroke="#ffffff" stroke-width="1.0" stroke-linejoin="round"/>
<text x="964" y="590" fill="#8a7258" font-family="var(--mono-font)" font-size="18" font-weight="500" text-anchor="start" letter-spacing="0">09:47</text>
<text x="1018" y="590" fill="#332d27" font-family="var(--mono-font)" font-size="18" font-weight="500" text-anchor="start" letter-spacing="0">dry_run</text>
<text x="1152" y="590" fill="#6b5d4b" font-family="var(--mono-font)" font-size="18" font-weight="500" text-anchor="start" letter-spacing="0">pass 6</text>
<path class="marker-ffffff" d="M 960.1 623.7 L 1181.2 626.0 L 1185.9 629.9 L 1186.5 656.5 L 1182.3 660.4 L 961.2 659.3 L 956.7 655.0 L 957.0 629.1 Z" fill="#ffffff" stroke="#ffffff" stroke-width="1.0" stroke-linejoin="round"/>
<text x="964" y="646" fill="#8a7258" font-family="var(--mono-font)" font-size="18" font-weight="500" text-anchor="start" letter-spacing="0">09:49</text>
<text x="1018" y="646" fill="#332d27" font-family="var(--mono-font)" font-size="18" font-weight="500" text-anchor="start" letter-spacing="0">contact_init</text>
<text x="1152" y="646" fill="#6b5d4b" font-family="var(--mono-font)" font-size="18" font-weight="500" text-anchor="start" letter-spacing="0">waiting</text>
<path class="marker-ffffff" d="M 961.2 681.7 L 1181.9 680.3 L 1185.2 685.4 L 1186.8 711.1 L 1182.4 714.3 L 958.7 714.4 L 955.3 710.5 L 956.1 683.9 Z" fill="#ffffff" stroke="#ffffff" stroke-width="1.0" stroke-linejoin="round"/>
<text x="964" y="702" fill="#8a7258" font-family="var(--mono-font)" font-size="18" font-weight="500" text-anchor="start" letter-spacing="0">09:50</text>
<text x="1018" y="702" fill="#332d27" font-family="var(--mono-font)" font-size="18" font-weight="500" text-anchor="start" letter-spacing="0">action-log</text>
<text x="1152" y="702" fill="#6b5d4b" font-family="var(--mono-font)" font-size="18" font-weight="500" text-anchor="start" letter-spacing="0">append</text>
<path d="M 1311.2 150.6 L 1514.6 148.7 L 1519.7 156.1 L 1519.7 297.1 L 1513.8 305.2 L 1312.3 304.6 L 1307.1 298.8 L 1305.6 154.5 Z" fill="#000000" stroke="#000000" stroke-width="0" stroke-linejoin="round"/>
<path d="M 1300.0 142.0 L 1500.0 146.0 L 1514.0 284.0 L 1306.0 296.0 Z" fill="#fff0ad" stroke="#37322b" stroke-width="2" opacity="0.96"/>
<text x="1318" y="176" fill="#302b25" font-family="var(--display-font)" font-size="21" font-weight="700" text-anchor="start" letter-spacing="0">安全边界</text>
<text x="1318" y="206" fill="#4c463d" font-family="var(--mono-font)" font-size="18" font-weight="500" text-anchor="start" letter-spacing="0">不绕过登录/验证码</text>
<text x="1318" y="230" fill="#4c463d" font-family="var(--mono-font)" font-size="18" font-weight="500" text-anchor="start" letter-spacing="0">不自动发送消息</text>
<text x="1318" y="254" fill="#4c463d" font-family="var(--mono-font)" font-size="18" font-weight="500" text-anchor="start" letter-spacing="0">动作必须授权</text>
<path d="M 1331.6 362.8 L 1539.1 363.4 L 1543.8 368.7 L 1544.1 528.3 L 1537.2 533.2 L 1331.8 532.6 L 1325.5 528.5 L 1325.7 367.0 Z" fill="#000000" stroke="#000000" stroke-width="0" stroke-linejoin="round"/>
<path d="M 1320.0 354.0 L 1524.0 358.0 L 1538.0 514.0 L 1326.0 526.0 Z" fill="#dcedd8" stroke="#37322b" stroke-width="2" opacity="0.96"/>
<text x="1338" y="388" fill="#302b25" font-family="var(--display-font)" font-size="21" font-weight="700" text-anchor="start" letter-spacing="0">页面产物</text>
<text x="1338" y="418" fill="#4c463d" font-family="var(--mono-font)" font-size="18" font-weight="500" text-anchor="start" letter-spacing="0">candidates.json</text>
<text x="1338" y="442" fill="#4c463d" font-family="var(--mono-font)" font-size="18" font-weight="500" text-anchor="start" letter-spacing="0">detail screenshot</text>
<text x="1338" y="466" fill="#4c463d" font-family="var(--mono-font)" font-size="18" font-weight="500" text-anchor="start" letter-spacing="0">decisions.json</text>
<text x="1338" y="490" fill="#4c463d" font-family="var(--mono-font)" font-size="18" font-weight="500" text-anchor="start" letter-spacing="0">action-log.jsonl</text>
<path d="M 1307.9 610.9 L 1522.4 610.6 L 1527.7 618.2 L 1526.6 766.4 L 1520.9 771.9 L 1306.7 771.6 L 1301.1 765.5 L 1302.8 617.6 Z" fill="#000000" stroke="#000000" stroke-width="0" stroke-linejoin="round"/>
<path d="M 1296.0 604.0 L 1508.0 608.0 L 1522.0 752.0 L 1302.0 764.0 Z" fill="#f6c7ad" stroke="#37322b" stroke-width="2" opacity="0.96"/>
<text x="1314" y="638" fill="#302b25" font-family="var(--display-font)" font-size="21" font-weight="700" text-anchor="start" letter-spacing="0">落地提示</text>
<text x="1314" y="668" fill="#4c463d" font-family="var(--mono-font)" font-size="18" font-weight="500" text-anchor="start" letter-spacing="0">首屏左侧留文案</text>
<text x="1314" y="692" fill="#4c463d" font-family="var(--mono-font)" font-size="18" font-weight="500" text-anchor="start" letter-spacing="0">右侧展示工作流</text>
<text x="1314" y="716" fill="#4c463d" font-family="var(--mono-font)" font-size="18" font-weight="500" text-anchor="start" letter-spacing="0">移动端裁成界面局部</text>
<path d="M 1287.3 400.7 Q 1161.0 448.3 1024.6 488.1" fill="none" stroke="#d55535" stroke-width="2.1" stroke-linecap="round" stroke-linejoin="round" stroke-dasharray="8 8"/>
<path d="M 1290.5 672.8 Q 992.0 681.0 678.5 693.8" fill="none" stroke="#246e5a" stroke-width="2.1" stroke-linecap="round" stroke-linejoin="round" stroke-dasharray="8 8"/>
<path d="M 85.0 886.9 Q 104.2 885.9 132.5 893.6" fill="none" stroke="#b98755" stroke-width="1.4" stroke-linecap="round" stroke-linejoin="round"/>
<path d="M 171.0 892.5 Q 198.2 893.2 218.7 887.7" fill="none" stroke="#b98755" stroke-width="1.4" stroke-linecap="round" stroke-linejoin="round"/>
<path d="M 256.6 892.0 Q 288.4 890.5 304.5 897.8" fill="none" stroke="#b98755" stroke-width="1.4" stroke-linecap="round" stroke-linejoin="round"/>
<path d="M 344.6 889.1 Q 370.4 883.8 388.8 888.3" fill="none" stroke="#b98755" stroke-width="1.4" stroke-linecap="round" stroke-linejoin="round"/>
<path d="M 431.5 885.1 Q 454.6 882.5 475.5 888.2" fill="none" stroke="#b98755" stroke-width="1.4" stroke-linecap="round" stroke-linejoin="round"/>
<path d="M 517.0 884.2 Q 539.1 880.8 560.8 883.0" fill="none" stroke="#b98755" stroke-width="1.4" stroke-linecap="round" stroke-linejoin="round"/>
<path d="M 601.8 887.3 Q 630.3 889.5 649.4 887.5" fill="none" stroke="#b98755" stroke-width="1.4" stroke-linecap="round" stroke-linejoin="round"/>
<path d="M 687.8 892.0 Q 711.6 893.0 733.3 896.0" fill="none" stroke="#b98755" stroke-width="1.4" stroke-linecap="round" stroke-linejoin="round"/>
<path d="M 773.2 892.8 Q 790.4 898.7 820.3 896.6" fill="none" stroke="#b98755" stroke-width="1.4" stroke-linecap="round" stroke-linejoin="round"/>
<path d="M 859.1 891.0 Q 888.6 884.1 905.5 885.5" fill="none" stroke="#b98755" stroke-width="1.4" stroke-linecap="round" stroke-linejoin="round"/>
<path d="M 947.3 884.0 Q 965.4 881.6 992.7 887.7" fill="none" stroke="#b98755" stroke-width="1.4" stroke-linecap="round" stroke-linejoin="round"/>
<path d="M 1032.0 883.9 Q 1058.0 886.0 1076.8 885.3" fill="none" stroke="#b98755" stroke-width="1.4" stroke-linecap="round" stroke-linejoin="round"/>
<path d="M 1117.9 885.4 Q 1137.9 887.3 1163.8 888.4" fill="none" stroke="#b98755" stroke-width="1.4" stroke-linecap="round" stroke-linejoin="round"/>
<path d="M 1203.3 889.0 Q 1230.2 886.8 1249.1 886.9" fill="none" stroke="#b98755" stroke-width="1.4" stroke-linecap="round" stroke-linejoin="round"/>
<text x="80" y="920" fill="#8b7459" font-family="var(--mono-font)" font-size="18" font-weight="500" text-anchor="start" letter-spacing="0">handdrawn wireframe style / grid paper / marker shadows / sticky notes / multi-tab variants</text>
</g>
</svg>